<svg xmlns="http://www.w3.org/2000/svg" version="1.1" xmlns:xlink="http://www.w3.org/1999/xlink" viewBox="0 0 200 200"><rect width="200" height="200" fill="url('#gradient')"></rect><defs><linearGradient id="gradient" gradientTransform="rotate(45 0.5 0.5)"><stop offset="0%" stop-color="#e3af29"></stop><stop offset="100%" stop-color="#f37d55"></stop></linearGradient></defs><g><g fill="#ffffff" transform="matrix(4.060806345009914,0,0,4.060806345009914,5.644856923397057,128.87170852168222)" stroke="#7d836e" stroke-width="0"><path d="M6.85 0L1.07 0L1.07-14.22L6.18-14.22Q8.93-14.22 10.36-13.21Q11.79-12.21 11.79-10.29L11.79-10.29Q11.79-9.19 11.28-8.41Q10.77-7.63 9.79-7.26L9.79-7.26Q10.90-6.96 11.49-6.16Q12.09-5.36 12.09-4.21L12.09-4.21Q12.09-2.12 10.77-1.07Q9.44-0.02 6.85 0L6.85 0ZM6.90-6.04L4.50-6.04L4.50-2.64L6.75-2.64Q7.68-2.64 8.17-3.06Q8.67-3.49 8.67-4.26L8.67-4.26Q8.67-6.04 6.90-6.04L6.90-6.04ZM4.50-11.57L4.50-8.29L6.29-8.29Q7.41-8.30 7.89-8.70Q8.37-9.10 8.37-9.88L8.37-9.88Q8.37-10.78 7.85-11.18Q7.33-11.57 6.18-11.57L6.18-11.57L4.50-11.57ZM22.79-8.57L22.79-6.03L17.40-6.03L17.40-2.64L23.77-2.64L23.77 0L13.97 0L13.97-14.22L23.79-14.22L23.79-11.57L17.40-11.57L17.40-8.57L22.79-8.57ZM28.59-14.22L28.59-2.64L34.56-2.64L34.56 0L25.17 0L25.17-14.22L28.59-14.22ZM39.43-14.22L39.43-2.64L45.40-2.64L45.40 0L36.01 0L36.01-14.22L39.43-14.22Z"></path></g></g></svg>